<mxfile host="app.diagrams.net" modified="2021-10-08T12:22:24.576Z" agent="5.0 (Windows NT 10.0; Win64; x64) AppleWebKit/537.36 (KHTML, like Gecko) Chrome/94.0.4606.61 Safari/537.36" etag="N6CfI2PYrGY1MzcrRI0q" version="14.9.8" type="github">
  <diagram id="KTl8g3MnL7EqeoU-ZOUq" name="Page-1">
    <mxGraphModel dx="1422" dy="1875" grid="1" gridSize="10" guides="1" tooltips="1" connect="1" arrows="1" fold="1" page="1" pageScale="1" pageWidth="827" pageHeight="1169" math="0" shadow="0">
      <root>
        <mxCell id="0" />
        <mxCell id="1" parent="0" />
        <mxCell id="3dIT8nD3w7ZH45Lx_ABC-2" value="user" style="rounded=0;whiteSpace=wrap;html=1;" parent="1" vertex="1">
          <mxGeometry x="255" y="160" width="50" height="30" as="geometry" />
        </mxCell>
        <mxCell id="3dIT8nD3w7ZH45Lx_ABC-3" value="id" style="ellipse;whiteSpace=wrap;html=1;" parent="1" vertex="1">
          <mxGeometry x="155" y="77.5" width="50" height="30" as="geometry" />
        </mxCell>
        <mxCell id="3dIT8nD3w7ZH45Lx_ABC-4" value="code" style="ellipse;whiteSpace=wrap;html=1;" parent="1" vertex="1">
          <mxGeometry x="130" y="152.5" width="50" height="30" as="geometry" />
        </mxCell>
        <mxCell id="3dIT8nD3w7ZH45Lx_ABC-5" value="username" style="ellipse;whiteSpace=wrap;html=1;" parent="1" vertex="1">
          <mxGeometry x="120" y="187.5" width="70" height="35" as="geometry" />
        </mxCell>
        <mxCell id="3dIT8nD3w7ZH45Lx_ABC-6" value="password" style="ellipse;whiteSpace=wrap;html=1;" parent="1" vertex="1">
          <mxGeometry x="140" y="222.5" width="70" height="35" as="geometry" />
        </mxCell>
        <mxCell id="3dIT8nD3w7ZH45Lx_ABC-7" value="active" style="ellipse;whiteSpace=wrap;html=1;" parent="1" vertex="1">
          <mxGeometry x="180" y="257.5" width="50" height="30" as="geometry" />
        </mxCell>
        <mxCell id="3dIT8nD3w7ZH45Lx_ABC-8" value="" style="endArrow=none;html=1;rounded=0;exitX=1;exitY=0.5;exitDx=0;exitDy=0;entryX=0;entryY=0.5;entryDx=0;entryDy=0;" parent="1" source="3dIT8nD3w7ZH45Lx_ABC-3" target="3dIT8nD3w7ZH45Lx_ABC-2" edge="1">
          <mxGeometry width="50" height="50" relative="1" as="geometry">
            <mxPoint x="130" y="270" as="sourcePoint" />
            <mxPoint x="180" y="220" as="targetPoint" />
          </mxGeometry>
        </mxCell>
        <mxCell id="3dIT8nD3w7ZH45Lx_ABC-9" value="" style="endArrow=none;html=1;rounded=0;entryX=0;entryY=0.5;entryDx=0;entryDy=0;exitX=1;exitY=0.5;exitDx=0;exitDy=0;" parent="1" source="3dIT8nD3w7ZH45Lx_ABC-4" target="3dIT8nD3w7ZH45Lx_ABC-2" edge="1">
          <mxGeometry width="50" height="50" relative="1" as="geometry">
            <mxPoint x="125" y="135" as="sourcePoint" />
            <mxPoint x="210" y="245" as="targetPoint" />
          </mxGeometry>
        </mxCell>
        <mxCell id="3dIT8nD3w7ZH45Lx_ABC-10" value="" style="endArrow=none;html=1;rounded=0;entryX=0;entryY=0.5;entryDx=0;entryDy=0;exitX=1;exitY=0.5;exitDx=0;exitDy=0;" parent="1" source="3dIT8nD3w7ZH45Lx_ABC-5" target="3dIT8nD3w7ZH45Lx_ABC-2" edge="1">
          <mxGeometry width="50" height="50" relative="1" as="geometry">
            <mxPoint x="150" y="297.5" as="sourcePoint" />
            <mxPoint x="220" y="255" as="targetPoint" />
          </mxGeometry>
        </mxCell>
        <mxCell id="3dIT8nD3w7ZH45Lx_ABC-11" value="" style="endArrow=none;html=1;rounded=0;entryX=0;entryY=0.5;entryDx=0;entryDy=0;" parent="1" source="3dIT8nD3w7ZH45Lx_ABC-6" target="3dIT8nD3w7ZH45Lx_ABC-2" edge="1">
          <mxGeometry width="50" height="50" relative="1" as="geometry">
            <mxPoint x="160" y="307.5" as="sourcePoint" />
            <mxPoint x="220" y="250" as="targetPoint" />
          </mxGeometry>
        </mxCell>
        <mxCell id="3dIT8nD3w7ZH45Lx_ABC-12" value="" style="endArrow=none;html=1;rounded=0;exitX=1;exitY=0.5;exitDx=0;exitDy=0;entryX=0;entryY=0.5;entryDx=0;entryDy=0;" parent="1" source="3dIT8nD3w7ZH45Lx_ABC-7" target="3dIT8nD3w7ZH45Lx_ABC-2" edge="1">
          <mxGeometry width="50" height="50" relative="1" as="geometry">
            <mxPoint x="170" y="317.5" as="sourcePoint" />
            <mxPoint x="225" y="250" as="targetPoint" />
          </mxGeometry>
        </mxCell>
        <mxCell id="3dIT8nD3w7ZH45Lx_ABC-14" value="user_info" style="rounded=0;whiteSpace=wrap;html=1;" parent="1" vertex="1">
          <mxGeometry x="250" width="60" height="30" as="geometry" />
        </mxCell>
        <mxCell id="3dIT8nD3w7ZH45Lx_ABC-15" value="id" style="ellipse;whiteSpace=wrap;html=1;" parent="1" vertex="1">
          <mxGeometry x="190" y="-20" width="50" height="30" as="geometry" />
        </mxCell>
        <mxCell id="3dIT8nD3w7ZH45Lx_ABC-16" value="code" style="ellipse;whiteSpace=wrap;html=1;" parent="1" vertex="1">
          <mxGeometry x="160" y="-50" width="50" height="30" as="geometry" />
        </mxCell>
        <mxCell id="3dIT8nD3w7ZH45Lx_ABC-17" value="name" style="ellipse;whiteSpace=wrap;html=1;" parent="1" vertex="1">
          <mxGeometry x="170" y="-85" width="50" height="35" as="geometry" />
        </mxCell>
        <mxCell id="3dIT8nD3w7ZH45Lx_ABC-18" value="identity" style="ellipse;whiteSpace=wrap;html=1;" parent="1" vertex="1">
          <mxGeometry x="301" y="-70" width="66" height="30" as="geometry" />
        </mxCell>
        <mxCell id="3dIT8nD3w7ZH45Lx_ABC-19" value="active" style="ellipse;whiteSpace=wrap;html=1;" parent="1" vertex="1">
          <mxGeometry x="315" y="-30" width="50" height="30" as="geometry" />
        </mxCell>
        <mxCell id="3dIT8nD3w7ZH45Lx_ABC-20" value="" style="endArrow=none;html=1;rounded=0;exitX=1;exitY=0.5;exitDx=0;exitDy=0;entryX=0.5;entryY=0;entryDx=0;entryDy=0;" parent="1" source="3dIT8nD3w7ZH45Lx_ABC-15" target="3dIT8nD3w7ZH45Lx_ABC-14" edge="1">
          <mxGeometry width="50" height="50" relative="1" as="geometry">
            <mxPoint x="140" y="65" as="sourcePoint" />
            <mxPoint x="190" y="15" as="targetPoint" />
          </mxGeometry>
        </mxCell>
        <mxCell id="3dIT8nD3w7ZH45Lx_ABC-21" value="" style="endArrow=none;html=1;rounded=0;exitX=1;exitY=0.5;exitDx=0;exitDy=0;entryX=0.5;entryY=0;entryDx=0;entryDy=0;" parent="1" source="3dIT8nD3w7ZH45Lx_ABC-16" target="3dIT8nD3w7ZH45Lx_ABC-14" edge="1">
          <mxGeometry width="50" height="50" relative="1" as="geometry">
            <mxPoint x="150" y="82.5" as="sourcePoint" />
            <mxPoint x="220" y="40" as="targetPoint" />
          </mxGeometry>
        </mxCell>
        <mxCell id="3dIT8nD3w7ZH45Lx_ABC-22" value="" style="endArrow=none;html=1;rounded=0;entryX=0.5;entryY=0;entryDx=0;entryDy=0;" parent="1" source="3dIT8nD3w7ZH45Lx_ABC-17" target="3dIT8nD3w7ZH45Lx_ABC-14" edge="1">
          <mxGeometry width="50" height="50" relative="1" as="geometry">
            <mxPoint x="160" y="92.5" as="sourcePoint" />
            <mxPoint x="230" y="50" as="targetPoint" />
          </mxGeometry>
        </mxCell>
        <mxCell id="3dIT8nD3w7ZH45Lx_ABC-23" value="" style="endArrow=none;html=1;rounded=0;exitX=0;exitY=1;exitDx=0;exitDy=0;entryX=0.5;entryY=0;entryDx=0;entryDy=0;" parent="1" source="3dIT8nD3w7ZH45Lx_ABC-18" target="3dIT8nD3w7ZH45Lx_ABC-14" edge="1">
          <mxGeometry width="50" height="50" relative="1" as="geometry">
            <mxPoint x="170" y="102.5" as="sourcePoint" />
            <mxPoint x="230" y="45" as="targetPoint" />
          </mxGeometry>
        </mxCell>
        <mxCell id="3dIT8nD3w7ZH45Lx_ABC-24" value="" style="endArrow=none;html=1;rounded=0;exitX=0;exitY=0.5;exitDx=0;exitDy=0;entryX=0.5;entryY=0;entryDx=0;entryDy=0;" parent="1" source="3dIT8nD3w7ZH45Lx_ABC-19" target="3dIT8nD3w7ZH45Lx_ABC-14" edge="1">
          <mxGeometry width="50" height="50" relative="1" as="geometry">
            <mxPoint x="180" y="112.5" as="sourcePoint" />
            <mxPoint x="235" y="45" as="targetPoint" />
          </mxGeometry>
        </mxCell>
        <mxCell id="3dIT8nD3w7ZH45Lx_ABC-25" value="dept_code" style="ellipse;whiteSpace=wrap;html=1;" parent="1" vertex="1">
          <mxGeometry x="205" y="-110" width="70" height="35" as="geometry" />
        </mxCell>
        <mxCell id="3dIT8nD3w7ZH45Lx_ABC-26" value="" style="endArrow=none;html=1;rounded=0;exitX=0.5;exitY=1;exitDx=0;exitDy=0;entryX=0.5;entryY=0;entryDx=0;entryDy=0;" parent="1" source="3dIT8nD3w7ZH45Lx_ABC-25" target="3dIT8nD3w7ZH45Lx_ABC-14" edge="1">
          <mxGeometry width="50" height="50" relative="1" as="geometry">
            <mxPoint x="315" y="130" as="sourcePoint" />
            <mxPoint x="245" y="55" as="targetPoint" />
          </mxGeometry>
        </mxCell>
        <mxCell id="3dIT8nD3w7ZH45Lx_ABC-28" value="department" style="rounded=0;whiteSpace=wrap;html=1;" parent="1" vertex="1">
          <mxGeometry x="481.25" y="160" width="75" height="30" as="geometry" />
        </mxCell>
        <mxCell id="3dIT8nD3w7ZH45Lx_ABC-29" value="id" style="ellipse;whiteSpace=wrap;html=1;" parent="1" vertex="1">
          <mxGeometry x="598.75" y="210" width="50" height="30" as="geometry" />
        </mxCell>
        <mxCell id="3dIT8nD3w7ZH45Lx_ABC-30" value="code" style="ellipse;whiteSpace=wrap;html=1;" parent="1" vertex="1">
          <mxGeometry x="613.75" y="180" width="50" height="30" as="geometry" />
        </mxCell>
        <mxCell id="3dIT8nD3w7ZH45Lx_ABC-31" value="name" style="ellipse;whiteSpace=wrap;html=1;" parent="1" vertex="1">
          <mxGeometry x="623.75" y="145" width="50" height="35" as="geometry" />
        </mxCell>
        <mxCell id="3dIT8nD3w7ZH45Lx_ABC-32" value="active" style="ellipse;whiteSpace=wrap;html=1;" parent="1" vertex="1">
          <mxGeometry x="613.75" y="115" width="50" height="30" as="geometry" />
        </mxCell>
        <mxCell id="3dIT8nD3w7ZH45Lx_ABC-33" value="" style="endArrow=none;html=1;rounded=0;entryX=1;entryY=0.5;entryDx=0;entryDy=0;" parent="1" source="3dIT8nD3w7ZH45Lx_ABC-29" target="3dIT8nD3w7ZH45Lx_ABC-28" edge="1">
          <mxGeometry width="50" height="50" relative="1" as="geometry">
            <mxPoint x="413.75" y="190" as="sourcePoint" />
            <mxPoint x="573.75" y="170" as="targetPoint" />
          </mxGeometry>
        </mxCell>
        <mxCell id="3dIT8nD3w7ZH45Lx_ABC-34" value="" style="endArrow=none;html=1;rounded=0;exitX=0;exitY=0.5;exitDx=0;exitDy=0;entryX=1;entryY=0.5;entryDx=0;entryDy=0;" parent="1" source="3dIT8nD3w7ZH45Lx_ABC-30" target="3dIT8nD3w7ZH45Lx_ABC-28" edge="1">
          <mxGeometry width="50" height="50" relative="1" as="geometry">
            <mxPoint x="423.75" y="207.5" as="sourcePoint" />
            <mxPoint x="493.75" y="165" as="targetPoint" />
          </mxGeometry>
        </mxCell>
        <mxCell id="3dIT8nD3w7ZH45Lx_ABC-35" value="" style="endArrow=none;html=1;rounded=0;entryX=1;entryY=0.5;entryDx=0;entryDy=0;" parent="1" source="3dIT8nD3w7ZH45Lx_ABC-31" target="3dIT8nD3w7ZH45Lx_ABC-28" edge="1">
          <mxGeometry width="50" height="50" relative="1" as="geometry">
            <mxPoint x="433.75" y="217.5" as="sourcePoint" />
            <mxPoint x="503.75" y="175" as="targetPoint" />
          </mxGeometry>
        </mxCell>
        <mxCell id="3dIT8nD3w7ZH45Lx_ABC-36" value="" style="endArrow=none;html=1;rounded=0;exitX=0;exitY=0.5;exitDx=0;exitDy=0;entryX=1;entryY=0.5;entryDx=0;entryDy=0;" parent="1" source="3dIT8nD3w7ZH45Lx_ABC-32" target="3dIT8nD3w7ZH45Lx_ABC-28" edge="1">
          <mxGeometry width="50" height="50" relative="1" as="geometry">
            <mxPoint x="453.75" y="237.5" as="sourcePoint" />
            <mxPoint x="573.75" y="170" as="targetPoint" />
          </mxGeometry>
        </mxCell>
        <mxCell id="3dIT8nD3w7ZH45Lx_ABC-38" value="file" style="rounded=0;whiteSpace=wrap;html=1;" parent="1" vertex="1">
          <mxGeometry x="355" y="390" width="60" height="30" as="geometry" />
        </mxCell>
        <mxCell id="3dIT8nD3w7ZH45Lx_ABC-39" value="id" style="ellipse;whiteSpace=wrap;html=1;" parent="1" vertex="1">
          <mxGeometry x="270" y="430" width="40" height="30" as="geometry" />
        </mxCell>
        <mxCell id="3dIT8nD3w7ZH45Lx_ABC-40" value="code" style="ellipse;whiteSpace=wrap;html=1;" parent="1" vertex="1">
          <mxGeometry x="275" y="470" width="50" height="30" as="geometry" />
        </mxCell>
        <mxCell id="3dIT8nD3w7ZH45Lx_ABC-41" value="url" style="ellipse;whiteSpace=wrap;html=1;" parent="1" vertex="1">
          <mxGeometry x="310" y="500" width="35" height="35" as="geometry" />
        </mxCell>
        <mxCell id="3dIT8nD3w7ZH45Lx_ABC-42" value="type" style="ellipse;whiteSpace=wrap;html=1;" parent="1" vertex="1">
          <mxGeometry x="420" y="510" width="40" height="35" as="geometry" />
        </mxCell>
        <mxCell id="3dIT8nD3w7ZH45Lx_ABC-43" value="active" style="ellipse;whiteSpace=wrap;html=1;" parent="1" vertex="1">
          <mxGeometry x="485" y="440" width="50" height="30" as="geometry" />
        </mxCell>
        <mxCell id="3dIT8nD3w7ZH45Lx_ABC-44" value="" style="endArrow=none;html=1;rounded=0;exitX=1;exitY=0.5;exitDx=0;exitDy=0;entryX=0.5;entryY=1;entryDx=0;entryDy=0;" parent="1" source="3dIT8nD3w7ZH45Lx_ABC-39" target="3dIT8nD3w7ZH45Lx_ABC-38" edge="1">
          <mxGeometry width="50" height="50" relative="1" as="geometry">
            <mxPoint x="315" y="440" as="sourcePoint" />
            <mxPoint x="365" y="390" as="targetPoint" />
          </mxGeometry>
        </mxCell>
        <mxCell id="3dIT8nD3w7ZH45Lx_ABC-45" value="" style="endArrow=none;html=1;rounded=0;exitX=0.5;exitY=0;exitDx=0;exitDy=0;entryX=0.5;entryY=1;entryDx=0;entryDy=0;" parent="1" source="3dIT8nD3w7ZH45Lx_ABC-40" target="3dIT8nD3w7ZH45Lx_ABC-38" edge="1">
          <mxGeometry width="50" height="50" relative="1" as="geometry">
            <mxPoint x="325" y="457.5" as="sourcePoint" />
            <mxPoint x="395" y="415" as="targetPoint" />
          </mxGeometry>
        </mxCell>
        <mxCell id="3dIT8nD3w7ZH45Lx_ABC-46" value="" style="endArrow=none;html=1;rounded=0;entryX=0.5;entryY=1;entryDx=0;entryDy=0;" parent="1" source="3dIT8nD3w7ZH45Lx_ABC-41" target="3dIT8nD3w7ZH45Lx_ABC-38" edge="1">
          <mxGeometry width="50" height="50" relative="1" as="geometry">
            <mxPoint x="335" y="467.5" as="sourcePoint" />
            <mxPoint x="405" y="425" as="targetPoint" />
          </mxGeometry>
        </mxCell>
        <mxCell id="3dIT8nD3w7ZH45Lx_ABC-47" value="" style="endArrow=none;html=1;rounded=0;exitX=0.5;exitY=0;exitDx=0;exitDy=0;entryX=0.5;entryY=1;entryDx=0;entryDy=0;" parent="1" source="3dIT8nD3w7ZH45Lx_ABC-42" target="3dIT8nD3w7ZH45Lx_ABC-38" edge="1">
          <mxGeometry width="50" height="50" relative="1" as="geometry">
            <mxPoint x="345" y="477.5" as="sourcePoint" />
            <mxPoint x="405" y="420" as="targetPoint" />
          </mxGeometry>
        </mxCell>
        <mxCell id="3dIT8nD3w7ZH45Lx_ABC-48" value="" style="endArrow=none;html=1;rounded=0;exitX=0;exitY=0.5;exitDx=0;exitDy=0;entryX=0.5;entryY=1;entryDx=0;entryDy=0;" parent="1" source="3dIT8nD3w7ZH45Lx_ABC-43" target="3dIT8nD3w7ZH45Lx_ABC-38" edge="1">
          <mxGeometry width="50" height="50" relative="1" as="geometry">
            <mxPoint x="355" y="487.5" as="sourcePoint" />
            <mxPoint x="410" y="420" as="targetPoint" />
          </mxGeometry>
        </mxCell>
        <mxCell id="3dIT8nD3w7ZH45Lx_ABC-49" value="name" style="ellipse;whiteSpace=wrap;html=1;" parent="1" vertex="1">
          <mxGeometry x="360" y="515" width="50" height="35" as="geometry" />
        </mxCell>
        <mxCell id="3dIT8nD3w7ZH45Lx_ABC-50" value="" style="endArrow=none;html=1;rounded=0;exitX=0.5;exitY=0;exitDx=0;exitDy=0;entryX=0.5;entryY=1;entryDx=0;entryDy=0;" parent="1" source="3dIT8nD3w7ZH45Lx_ABC-49" target="3dIT8nD3w7ZH45Lx_ABC-38" edge="1">
          <mxGeometry width="50" height="50" relative="1" as="geometry">
            <mxPoint x="490" y="505" as="sourcePoint" />
            <mxPoint x="420" y="430" as="targetPoint" />
          </mxGeometry>
        </mxCell>
        <mxCell id="3dIT8nD3w7ZH45Lx_ABC-51" value="md5code" style="ellipse;whiteSpace=wrap;html=1;" parent="1" vertex="1">
          <mxGeometry x="460" y="480" width="60" height="35" as="geometry" />
        </mxCell>
        <mxCell id="3dIT8nD3w7ZH45Lx_ABC-52" value="" style="endArrow=none;html=1;rounded=0;entryX=0.5;entryY=1;entryDx=0;entryDy=0;" parent="1" source="3dIT8nD3w7ZH45Lx_ABC-51" target="3dIT8nD3w7ZH45Lx_ABC-38" edge="1">
          <mxGeometry width="50" height="50" relative="1" as="geometry">
            <mxPoint x="495" y="465" as="sourcePoint" />
            <mxPoint x="400" y="430" as="targetPoint" />
          </mxGeometry>
        </mxCell>
        <mxCell id="3dIT8nD3w7ZH45Lx_ABC-55" value="id" style="ellipse;whiteSpace=wrap;html=1;" parent="1" vertex="1">
          <mxGeometry x="530" y="220" width="50" height="30" as="geometry" />
        </mxCell>
        <mxCell id="3dIT8nD3w7ZH45Lx_ABC-56" value="user_code" style="ellipse;whiteSpace=wrap;html=1;" parent="1" vertex="1">
          <mxGeometry x="540" y="250" width="65" height="30" as="geometry" />
        </mxCell>
        <mxCell id="3dIT8nD3w7ZH45Lx_ABC-57" value="dept_code" style="ellipse;whiteSpace=wrap;html=1;" parent="1" vertex="1">
          <mxGeometry x="542.5" y="280" width="60" height="30" as="geometry" />
        </mxCell>
        <mxCell id="3dIT8nD3w7ZH45Lx_ABC-58" value="upload_time" style="ellipse;whiteSpace=wrap;html=1;" parent="1" vertex="1">
          <mxGeometry x="550" y="340" width="70" height="30" as="geometry" />
        </mxCell>
        <mxCell id="3dIT8nD3w7ZH45Lx_ABC-59" value="active" style="ellipse;whiteSpace=wrap;html=1;" parent="1" vertex="1">
          <mxGeometry x="530" y="400" width="50" height="30" as="geometry" />
        </mxCell>
        <mxCell id="3dIT8nD3w7ZH45Lx_ABC-60" value="" style="endArrow=none;html=1;rounded=0;entryX=1;entryY=0.5;entryDx=0;entryDy=0;exitX=0;exitY=0.5;exitDx=0;exitDy=0;" parent="1" source="3dIT8nD3w7ZH45Lx_ABC-55" edge="1">
          <mxGeometry width="50" height="50" relative="1" as="geometry">
            <mxPoint x="435" y="198" as="sourcePoint" />
            <mxPoint x="425" y="315" as="targetPoint" />
          </mxGeometry>
        </mxCell>
        <mxCell id="3dIT8nD3w7ZH45Lx_ABC-61" value="" style="endArrow=none;html=1;rounded=0;exitX=0;exitY=0.5;exitDx=0;exitDy=0;entryX=1;entryY=0.5;entryDx=0;entryDy=0;" parent="1" source="3dIT8nD3w7ZH45Lx_ABC-56" edge="1">
          <mxGeometry width="50" height="50" relative="1" as="geometry">
            <mxPoint x="482.5" y="282.5" as="sourcePoint" />
            <mxPoint x="425" y="315" as="targetPoint" />
          </mxGeometry>
        </mxCell>
        <mxCell id="3dIT8nD3w7ZH45Lx_ABC-62" value="" style="endArrow=none;html=1;rounded=0;entryX=1;entryY=0.5;entryDx=0;entryDy=0;exitX=0;exitY=0.5;exitDx=0;exitDy=0;" parent="1" source="3dIT8nD3w7ZH45Lx_ABC-57" edge="1">
          <mxGeometry width="50" height="50" relative="1" as="geometry">
            <mxPoint x="497.0984114389321" y="329.99913362199055" as="sourcePoint" />
            <mxPoint x="425" y="315" as="targetPoint" />
          </mxGeometry>
        </mxCell>
        <mxCell id="3dIT8nD3w7ZH45Lx_ABC-63" value="" style="endArrow=none;html=1;rounded=0;exitX=0;exitY=0.5;exitDx=0;exitDy=0;entryX=1;entryY=0.5;entryDx=0;entryDy=0;" parent="1" source="3dIT8nD3w7ZH45Lx_ABC-58" edge="1">
          <mxGeometry width="50" height="50" relative="1" as="geometry">
            <mxPoint x="502.5" y="407.81" as="sourcePoint" />
            <mxPoint x="425" y="315" as="targetPoint" />
          </mxGeometry>
        </mxCell>
        <mxCell id="3dIT8nD3w7ZH45Lx_ABC-64" value="" style="endArrow=none;html=1;rounded=0;exitX=0;exitY=0.5;exitDx=0;exitDy=0;entryX=1;entryY=0.5;entryDx=0;entryDy=0;" parent="1" source="3dIT8nD3w7ZH45Lx_ABC-59" edge="1">
          <mxGeometry width="50" height="50" relative="1" as="geometry">
            <mxPoint x="512.5" y="417.81" as="sourcePoint" />
            <mxPoint x="425" y="315" as="targetPoint" />
          </mxGeometry>
        </mxCell>
        <mxCell id="3dIT8nD3w7ZH45Lx_ABC-65" value="file_code" style="ellipse;whiteSpace=wrap;html=1;" parent="1" vertex="1">
          <mxGeometry x="550" y="310" width="70" height="30" as="geometry" />
        </mxCell>
        <mxCell id="3dIT8nD3w7ZH45Lx_ABC-66" value="" style="endArrow=none;html=1;rounded=0;exitX=0;exitY=0.5;exitDx=0;exitDy=0;entryX=1;entryY=0.5;entryDx=0;entryDy=0;" parent="1" source="3dIT8nD3w7ZH45Lx_ABC-65" edge="1">
          <mxGeometry width="50" height="50" relative="1" as="geometry">
            <mxPoint x="647.5" y="435.31" as="sourcePoint" />
            <mxPoint x="425" y="315" as="targetPoint" />
          </mxGeometry>
        </mxCell>
        <mxCell id="3dIT8nD3w7ZH45Lx_ABC-67" value="private_level" style="ellipse;whiteSpace=wrap;html=1;" parent="1" vertex="1">
          <mxGeometry x="545" y="370" width="75" height="30" as="geometry" />
        </mxCell>
        <mxCell id="3dIT8nD3w7ZH45Lx_ABC-68" value="" style="endArrow=none;html=1;rounded=0;exitX=0;exitY=0.5;exitDx=0;exitDy=0;entryX=1;entryY=0.5;entryDx=0;entryDy=0;" parent="1" source="3dIT8nD3w7ZH45Lx_ABC-67" edge="1">
          <mxGeometry width="50" height="50" relative="1" as="geometry">
            <mxPoint x="667.5" y="395.31" as="sourcePoint" />
            <mxPoint x="425" y="315" as="targetPoint" />
          </mxGeometry>
        </mxCell>
        <mxCell id="3dIT8nD3w7ZH45Lx_ABC-70" value="包含" style="rhombus;whiteSpace=wrap;html=1;" parent="1" vertex="1">
          <mxGeometry x="240" y="65" width="80" height="50" as="geometry" />
        </mxCell>
        <mxCell id="3dIT8nD3w7ZH45Lx_ABC-71" value="" style="endArrow=none;html=1;rounded=0;edgeStyle=orthogonalEdgeStyle;exitX=0.5;exitY=0;exitDx=0;exitDy=0;entryX=0.5;entryY=1;entryDx=0;entryDy=0;" parent="1" source="3dIT8nD3w7ZH45Lx_ABC-70" target="3dIT8nD3w7ZH45Lx_ABC-14" edge="1">
          <mxGeometry width="50" height="50" relative="1" as="geometry">
            <mxPoint x="229.5" y="70" as="sourcePoint" />
            <mxPoint x="229.5" y="20" as="targetPoint" />
          </mxGeometry>
        </mxCell>
        <mxCell id="3dIT8nD3w7ZH45Lx_ABC-74" value="" style="endArrow=none;html=1;rounded=0;edgeStyle=orthogonalEdgeStyle;exitX=0.5;exitY=0;exitDx=0;exitDy=0;entryX=0.494;entryY=1;entryDx=0;entryDy=0;entryPerimeter=0;" parent="1" source="3dIT8nD3w7ZH45Lx_ABC-2" target="3dIT8nD3w7ZH45Lx_ABC-70" edge="1">
          <mxGeometry width="50" height="50" relative="1" as="geometry">
            <mxPoint x="234.5" y="155" as="sourcePoint" />
            <mxPoint x="234.5" y="115" as="targetPoint" />
          </mxGeometry>
        </mxCell>
        <mxCell id="3dIT8nD3w7ZH45Lx_ABC-76" value="归属" style="rhombus;whiteSpace=wrap;html=1;" parent="1" vertex="1">
          <mxGeometry x="350" y="150" width="80" height="50" as="geometry" />
        </mxCell>
        <mxCell id="3dIT8nD3w7ZH45Lx_ABC-86" value="" style="endArrow=none;html=1;rounded=0;exitX=1;exitY=0.5;exitDx=0;exitDy=0;entryX=0;entryY=0.5;entryDx=0;entryDy=0;" parent="1" source="3dIT8nD3w7ZH45Lx_ABC-2" target="3dIT8nD3w7ZH45Lx_ABC-76" edge="1">
          <mxGeometry width="50" height="50" relative="1" as="geometry">
            <mxPoint x="480" y="195" as="sourcePoint" />
            <mxPoint x="552.5" y="120" as="targetPoint" />
          </mxGeometry>
        </mxCell>
        <mxCell id="3dIT8nD3w7ZH45Lx_ABC-92" value="" style="endArrow=none;html=1;rounded=0;exitX=0;exitY=0.5;exitDx=0;exitDy=0;entryX=1;entryY=0.5;entryDx=0;entryDy=0;" parent="1" source="3dIT8nD3w7ZH45Lx_ABC-28" target="3dIT8nD3w7ZH45Lx_ABC-76" edge="1">
          <mxGeometry width="50" height="50" relative="1" as="geometry">
            <mxPoint x="270" y="185" as="sourcePoint" />
            <mxPoint x="350" y="105" as="targetPoint" />
          </mxGeometry>
        </mxCell>
        <mxCell id="3dIT8nD3w7ZH45Lx_ABC-93" value="1" style="text;html=1;align=center;verticalAlign=middle;resizable=0;points=[];autosize=1;strokeColor=none;fillColor=none;" parent="1" vertex="1">
          <mxGeometry x="255" y="130" width="20" height="20" as="geometry" />
        </mxCell>
        <mxCell id="3dIT8nD3w7ZH45Lx_ABC-94" value="1" style="text;html=1;align=center;verticalAlign=middle;resizable=0;points=[];autosize=1;strokeColor=none;fillColor=none;" parent="1" vertex="1">
          <mxGeometry x="255" y="45" width="20" height="20" as="geometry" />
        </mxCell>
        <mxCell id="3dIT8nD3w7ZH45Lx_ABC-100" value="m" style="text;html=1;align=center;verticalAlign=middle;resizable=0;points=[];autosize=1;strokeColor=none;fillColor=none;" parent="1" vertex="1">
          <mxGeometry x="440" y="155" width="30" height="20" as="geometry" />
        </mxCell>
        <mxCell id="3dIT8nD3w7ZH45Lx_ABC-101" value="n" style="text;html=1;align=center;verticalAlign=middle;resizable=0;points=[];autosize=1;strokeColor=none;fillColor=none;" parent="1" vertex="1">
          <mxGeometry x="310" y="155" width="20" height="20" as="geometry" />
        </mxCell>
        <mxCell id="3dIT8nD3w7ZH45Lx_ABC-104" value="" style="endArrow=none;html=1;rounded=0;exitX=0.5;exitY=1;exitDx=0;exitDy=0;entryX=0.5;entryY=0;entryDx=0;entryDy=0;" parent="1" source="3dIT8nD3w7ZH45Lx_ABC-28" target="49Yr9ta0vlwltb7Vohck-25" edge="1">
          <mxGeometry width="50" height="50" relative="1" as="geometry">
            <mxPoint x="527.5" y="185" as="sourcePoint" />
            <mxPoint x="385" y="290" as="targetPoint" />
          </mxGeometry>
        </mxCell>
        <mxCell id="3dIT8nD3w7ZH45Lx_ABC-105" value="" style="endArrow=none;html=1;rounded=0;exitX=0.5;exitY=0;exitDx=0;exitDy=0;entryX=0.5;entryY=1;entryDx=0;entryDy=0;" parent="1" source="49Yr9ta0vlwltb7Vohck-25" target="3dIT8nD3w7ZH45Lx_ABC-2" edge="1">
          <mxGeometry width="50" height="50" relative="1" as="geometry">
            <mxPoint x="385" y="290" as="sourcePoint" />
            <mxPoint x="450" y="195" as="targetPoint" />
          </mxGeometry>
        </mxCell>
        <mxCell id="3dIT8nD3w7ZH45Lx_ABC-107" value="n" style="text;html=1;align=center;verticalAlign=middle;resizable=0;points=[];autosize=1;strokeColor=none;fillColor=none;" parent="1" vertex="1">
          <mxGeometry x="317.5" y="215" width="20" height="20" as="geometry" />
        </mxCell>
        <mxCell id="3dIT8nD3w7ZH45Lx_ABC-109" value="p" style="text;html=1;align=center;verticalAlign=middle;resizable=0;points=[];autosize=1;strokeColor=none;fillColor=none;" parent="1" vertex="1">
          <mxGeometry x="447.5" y="210" width="20" height="20" as="geometry" />
        </mxCell>
        <mxCell id="3dIT8nD3w7ZH45Lx_ABC-110" value="m" style="text;html=1;align=center;verticalAlign=middle;resizable=0;points=[];autosize=1;strokeColor=none;fillColor=none;" parent="1" vertex="1">
          <mxGeometry x="355" y="355" width="30" height="20" as="geometry" />
        </mxCell>
        <mxCell id="49Yr9ta0vlwltb7Vohck-1" value="company_code" style="ellipse;whiteSpace=wrap;html=1;" vertex="1" parent="1">
          <mxGeometry x="275" y="-110" width="100" height="35" as="geometry" />
        </mxCell>
        <mxCell id="49Yr9ta0vlwltb7Vohck-3" value="" style="endArrow=none;html=1;rounded=0;exitX=0;exitY=1;exitDx=0;exitDy=0;entryX=0.5;entryY=0;entryDx=0;entryDy=0;" edge="1" parent="1" source="49Yr9ta0vlwltb7Vohck-1" target="3dIT8nD3w7ZH45Lx_ABC-14">
          <mxGeometry width="50" height="50" relative="1" as="geometry">
            <mxPoint x="320.66547622084386" y="-34.393398282201815" as="sourcePoint" />
            <mxPoint x="245" y="-34" as="targetPoint" />
          </mxGeometry>
        </mxCell>
        <mxCell id="49Yr9ta0vlwltb7Vohck-4" value="company_code" style="ellipse;whiteSpace=wrap;html=1;" vertex="1" parent="1">
          <mxGeometry x="583.75" y="77.5" width="100" height="35" as="geometry" />
        </mxCell>
        <mxCell id="49Yr9ta0vlwltb7Vohck-5" value="" style="endArrow=none;html=1;rounded=0;exitX=0;exitY=1;exitDx=0;exitDy=0;entryX=1;entryY=0.5;entryDx=0;entryDy=0;" edge="1" parent="1" source="49Yr9ta0vlwltb7Vohck-4" target="3dIT8nD3w7ZH45Lx_ABC-28">
          <mxGeometry width="50" height="50" relative="1" as="geometry">
            <mxPoint x="613.75" y="120" as="sourcePoint" />
            <mxPoint x="566.25" y="185" as="targetPoint" />
          </mxGeometry>
        </mxCell>
        <mxCell id="49Yr9ta0vlwltb7Vohck-7" value="img" style="ellipse;whiteSpace=wrap;html=1;" vertex="1" parent="1">
          <mxGeometry x="140" y="112.5" width="50" height="30" as="geometry" />
        </mxCell>
        <mxCell id="49Yr9ta0vlwltb7Vohck-8" value="" style="endArrow=none;html=1;rounded=0;entryX=0;entryY=0.5;entryDx=0;entryDy=0;exitX=1;exitY=1;exitDx=0;exitDy=0;" edge="1" parent="1" source="49Yr9ta0vlwltb7Vohck-7" target="3dIT8nD3w7ZH45Lx_ABC-2">
          <mxGeometry width="50" height="50" relative="1" as="geometry">
            <mxPoint x="120" y="180" as="sourcePoint" />
            <mxPoint x="220" y="185" as="targetPoint" />
          </mxGeometry>
        </mxCell>
        <mxCell id="49Yr9ta0vlwltb7Vohck-9" value="company" style="rounded=0;whiteSpace=wrap;html=1;" vertex="1" parent="1">
          <mxGeometry x="455" y="30" width="70" height="30" as="geometry" />
        </mxCell>
        <mxCell id="49Yr9ta0vlwltb7Vohck-10" value="id" style="ellipse;whiteSpace=wrap;html=1;" vertex="1" parent="1">
          <mxGeometry x="395" y="-5" width="50" height="30" as="geometry" />
        </mxCell>
        <mxCell id="49Yr9ta0vlwltb7Vohck-11" value="code" style="ellipse;whiteSpace=wrap;html=1;" vertex="1" parent="1">
          <mxGeometry x="395" y="-35" width="52.5" height="30" as="geometry" />
        </mxCell>
        <mxCell id="49Yr9ta0vlwltb7Vohck-12" value="name" style="ellipse;whiteSpace=wrap;html=1;" vertex="1" parent="1">
          <mxGeometry x="415" y="-65" width="60" height="30" as="geometry" />
        </mxCell>
        <mxCell id="49Yr9ta0vlwltb7Vohck-13" value="mail_suffix" style="ellipse;whiteSpace=wrap;html=1;" vertex="1" parent="1">
          <mxGeometry x="535" y="-65" width="70" height="30" as="geometry" />
        </mxCell>
        <mxCell id="49Yr9ta0vlwltb7Vohck-14" value="active" style="ellipse;whiteSpace=wrap;html=1;" vertex="1" parent="1">
          <mxGeometry x="565" y="-35" width="50" height="30" as="geometry" />
        </mxCell>
        <mxCell id="49Yr9ta0vlwltb7Vohck-15" value="" style="endArrow=none;html=1;rounded=0;exitX=1;exitY=0.5;exitDx=0;exitDy=0;entryX=0.5;entryY=0;entryDx=0;entryDy=0;" edge="1" parent="1" source="49Yr9ta0vlwltb7Vohck-10" target="49Yr9ta0vlwltb7Vohck-9">
          <mxGeometry width="50" height="50" relative="1" as="geometry">
            <mxPoint x="402.5" y="70" as="sourcePoint" />
            <mxPoint x="452.5" y="20" as="targetPoint" />
          </mxGeometry>
        </mxCell>
        <mxCell id="49Yr9ta0vlwltb7Vohck-16" value="" style="endArrow=none;html=1;rounded=0;entryX=0.5;entryY=0;entryDx=0;entryDy=0;exitX=1;exitY=0.5;exitDx=0;exitDy=0;" edge="1" parent="1" source="49Yr9ta0vlwltb7Vohck-11" target="49Yr9ta0vlwltb7Vohck-9">
          <mxGeometry width="50" height="50" relative="1" as="geometry">
            <mxPoint x="445" y="-20" as="sourcePoint" />
            <mxPoint x="482.5" y="45" as="targetPoint" />
          </mxGeometry>
        </mxCell>
        <mxCell id="49Yr9ta0vlwltb7Vohck-17" value="" style="endArrow=none;html=1;rounded=0;entryX=0.5;entryY=0;entryDx=0;entryDy=0;" edge="1" parent="1" source="49Yr9ta0vlwltb7Vohck-12" target="49Yr9ta0vlwltb7Vohck-9">
          <mxGeometry width="50" height="50" relative="1" as="geometry">
            <mxPoint x="422.5" y="97.5" as="sourcePoint" />
            <mxPoint x="492.5" y="55" as="targetPoint" />
          </mxGeometry>
        </mxCell>
        <mxCell id="49Yr9ta0vlwltb7Vohck-18" value="" style="endArrow=none;html=1;rounded=0;exitX=0;exitY=1;exitDx=0;exitDy=0;entryX=0.5;entryY=0;entryDx=0;entryDy=0;" edge="1" parent="1" source="49Yr9ta0vlwltb7Vohck-13" target="49Yr9ta0vlwltb7Vohck-9">
          <mxGeometry width="50" height="50" relative="1" as="geometry">
            <mxPoint x="432.5" y="107.5" as="sourcePoint" />
            <mxPoint x="492.5" y="50" as="targetPoint" />
          </mxGeometry>
        </mxCell>
        <mxCell id="49Yr9ta0vlwltb7Vohck-19" value="" style="endArrow=none;html=1;rounded=0;exitX=0;exitY=0.5;exitDx=0;exitDy=0;entryX=0.5;entryY=0;entryDx=0;entryDy=0;" edge="1" parent="1" source="49Yr9ta0vlwltb7Vohck-14" target="49Yr9ta0vlwltb7Vohck-9">
          <mxGeometry width="50" height="50" relative="1" as="geometry">
            <mxPoint x="442.5" y="117.5" as="sourcePoint" />
            <mxPoint x="497.5" y="50" as="targetPoint" />
          </mxGeometry>
        </mxCell>
        <mxCell id="49Yr9ta0vlwltb7Vohck-20" value="mail" style="ellipse;whiteSpace=wrap;html=1;" vertex="1" parent="1">
          <mxGeometry x="470" y="-85" width="70" height="35" as="geometry" />
        </mxCell>
        <mxCell id="49Yr9ta0vlwltb7Vohck-21" value="" style="endArrow=none;html=1;rounded=0;exitX=0.5;exitY=1;exitDx=0;exitDy=0;entryX=0.5;entryY=0;entryDx=0;entryDy=0;" edge="1" parent="1" source="49Yr9ta0vlwltb7Vohck-20" target="49Yr9ta0vlwltb7Vohck-9">
          <mxGeometry width="50" height="50" relative="1" as="geometry">
            <mxPoint x="577.5" y="135" as="sourcePoint" />
            <mxPoint x="502" y="15" as="targetPoint" />
          </mxGeometry>
        </mxCell>
        <mxCell id="49Yr9ta0vlwltb7Vohck-22" value="" style="endArrow=none;html=1;rounded=0;exitX=0.5;exitY=0;exitDx=0;exitDy=0;entryX=0.5;entryY=1;entryDx=0;entryDy=0;" edge="1" parent="1" source="3dIT8nD3w7ZH45Lx_ABC-76" target="49Yr9ta0vlwltb7Vohck-9">
          <mxGeometry width="50" height="50" relative="1" as="geometry">
            <mxPoint x="270" y="185" as="sourcePoint" />
            <mxPoint x="360" y="185" as="targetPoint" />
          </mxGeometry>
        </mxCell>
        <mxCell id="49Yr9ta0vlwltb7Vohck-23" value="1" style="edgeLabel;html=1;align=center;verticalAlign=middle;resizable=0;points=[];" vertex="1" connectable="0" parent="49Yr9ta0vlwltb7Vohck-22">
          <mxGeometry x="0.2099" y="1" relative="1" as="geometry">
            <mxPoint x="-2" y="-10" as="offset" />
          </mxGeometry>
        </mxCell>
        <mxCell id="49Yr9ta0vlwltb7Vohck-25" value="上传" style="shape=associativeEntity;whiteSpace=wrap;html=1;align=center;" vertex="1" parent="1">
          <mxGeometry x="345" y="295" width="80" height="45" as="geometry" />
        </mxCell>
        <mxCell id="49Yr9ta0vlwltb7Vohck-27" value="" style="endArrow=none;html=1;rounded=0;exitX=0.5;exitY=1;exitDx=0;exitDy=0;entryX=0.5;entryY=0;entryDx=0;entryDy=0;" edge="1" parent="1" source="49Yr9ta0vlwltb7Vohck-25" target="3dIT8nD3w7ZH45Lx_ABC-38">
          <mxGeometry width="50" height="50" relative="1" as="geometry">
            <mxPoint x="395" y="305" as="sourcePoint" />
            <mxPoint x="245" y="200" as="targetPoint" />
          </mxGeometry>
        </mxCell>
      </root>
    </mxGraphModel>
  </diagram>
</mxfile>
